<svg id="Layer_1" data-name="Layer 1" xmlns="http://www.w3.org/2000/svg" viewBox="0 0 1080 1080"><path d="M1037.8291,492.13a19.1238,19.1238,0,0,1-19.1238-19.1238V281.34A124.3046,124.3046,0,0,0,894.4008,157.0357H683.6116L540,415.5931,396.3884,157.0357H185.5992A124.3046,124.3046,0,0,0,61.2947,281.34V473.0057A19.1238,19.1238,0,0,1,42.1709,492.13H0v95.7411H42.1709a19.1238,19.1238,0,0,1,19.1238,19.1238V798.66A124.3045,124.3045,0,0,0,185.5992,922.9643h107.45V827.2232H202.9328a45.897,45.897,0,0,1-45.897-45.897V587.8705A47.8705,47.8705,0,0,0,109.1652,540a47.8705,47.8705,0,0,0,47.8706-47.87V298.6739a45.8969,45.8969,0,0,1,45.897-45.897h49.844L444.2589,559.2047V827.2232H388.79v95.7411H691.21V827.2232H635.7411V559.2047L827.2232,252.7769h49.844a45.8969,45.8969,0,0,1,45.897,45.897V492.13A47.8705,47.8705,0,0,0,970.8348,540a47.8705,47.8705,0,0,0-47.8706,47.87V781.3262a45.897,45.897,0,0,1-45.897,45.897H786.9507v95.7411h107.45A124.3045,124.3045,0,0,0,1018.7053,798.66V606.9944a19.1238,19.1238,0,0,1,19.1238-19.1238H1080V492.13Z"/></svg>