<svg id="Layer_1" data-name="Layer 1" xmlns="http://www.w3.org/2000/svg" viewBox="0 0 24 24"><path d="M23.0629,10.9362a.425.425,0,0,1-.425-.425V6.252A2.7623,2.7623,0,0,0,19.8756,3.49H15.1914L12,9.2354,8.8086,3.49H4.1244A2.7623,2.7623,0,0,0,1.3621,6.252v4.2592a.425.425,0,0,1-.425.425H0v2.1276H.9371a.425.425,0,0,1,.425.425V17.748A2.7623,2.7623,0,0,0,4.1244,20.51H6.5122V18.3827H4.51a1.02,1.02,0,0,1-1.02-1.02v-4.299h0A1.0638,1.0638,0,0,0,2.4259,12,1.0638,1.0638,0,0,0,3.49,10.9362V6.6372a1.02,1.02,0,0,1,1.02-1.02H5.6173l4.2551,6.81v5.9559H8.64V20.51h6.72V18.3827H14.1276V12.4268l4.2551-6.8095H19.49a1.02,1.02,0,0,1,1.02,1.02v4.299A1.0638,1.0638,0,0,0,21.5741,12,1.0638,1.0638,0,0,0,20.51,13.0638h0v4.299a1.02,1.02,0,0,1-1.02,1.02H17.4878V20.51h2.3878a2.7623,2.7623,0,0,0,2.7623-2.7623V13.4888a.425.425,0,0,1,.425-.425H24V10.9362Z"/></svg>