<svg xmlns="http://www.w3.org/2000/svg" viewBox="0 0 200 200"><defs><style>.a,.b{fill:none;stroke:#000;stroke-miterlimit:10;}.b{stroke-width:3px;}</style></defs><path d="M124.5858,1,174,50.4142V199H26V1h98.5858M125,0H25V200H175V50L125,0Z"/><path d="M126,2.4142,172.5858,49H126V2.4142M125,0V50h50L125,0Z"/><line class="a" x1="135" y1="100" x2="150" y2="100"/><line class="a" x1="50" y1="100" x2="65" y2="100"/><line class="a" x1="50" y1="125" x2="150" y2="125"/><line class="a" x1="50" y1="50" x2="112.5" y2="50"/><line class="a" x1="50" y1="25" x2="112.5" y2="25"/><line class="a" x1="50" y1="75" x2="150" y2="75"/><line class="a" x1="50" y1="150" x2="150" y2="150"/><line class="a" x1="50" y1="175" x2="150" y2="175"/><polyline class="b" points="92.361 108.556 80.297 100 92.361 91.444"/><polyline class="b" points="107.639 108.556 119.703 100 107.639 91.444"/><line class="b" x1="96.1177" y1="114.4889" x2="103.8823" y2="85.5111"/></svg>